<svg id="acd745d2-2e0a-4361-80b5-26f292c22a61" data-name="Ebene 1" xmlns="http://www.w3.org/2000/svg" width="1083.6483" height="349.1429" viewBox="0 0 1083.6483 349.1429"><defs><style>.ab21d0f4-8f4b-421e-ad12-02b96987a3e1{fill:#72797c;}.e272d904-9fbc-44f4-9fb7-4e838be75961{fill:#0a0402;}.b4409b33-c44f-434f-a0eb-642165954fd4{fill:#fff;}</style></defs><path class="ab21d0f4-8f4b-421e-ad12-02b96987a3e1" d="M292.5915,378.93q0,83.2921-.0006,166.5843c0,.8788.0212,1.7589-.0187,2.6361a8.6476,8.6476,0,0,1-8.2324,8.4036c-.9566.0591-1.9184.0481-2.8778.0481q-80.9767.003-161.9535,0c-.9595,0-1.9206.011-2.8781-.0376a8.7719,8.7719,0,0,1-8.4611-8.4667c-.0333-.7176-.0141-1.4379-.0141-2.1569q-.0007-167.6626.0059-335.3253c0-3.6124-.4419-3.1338,3.2183-3.1344q89.0143-.015,178.0288,0c3.5952.0006,3.1768-.4766,3.1773,3.1865Q292.5984,294.799,292.5915,378.93ZM185.7383,438.55h2.9283q17.3928,0,34.7856,0c.64,0,1.2793.0119,1.919.0116.7112,0,.9884.3856.9815,1.0563-.0067.6389.0114,1.278.0115,1.917q.0014,12.9416.0006,25.8832,0,10.3053-.0023,20.6107c-.0023,2.3919-.0143,2.3922-2.2943,2.414-.24.0023-.48,0-.72,0q-23.0306,0-46.0609-.0038c-3.2887-.0019-2.9.2892-2.9011-2.9907q-.0137-39.3039-.0052-78.6077c0-.6391-.0526-1.2832.009-1.9162.1183-1.2143-.4974-1.5524-1.5734-1.4575-.3967.035-.7992.004-1.199.004q-13.7943,0-27.5885.0038c-3.0829.0037-2.7593-.3113-2.76,2.88q-.0093,56.08.0011,112.1605c.0007,3.2909-.3911,3.0015,2.8891,3.0021q56.2568.0087,112.5134.0005c3.0933,0,2.8025.2791,2.803-2.8605q.0078-56.2.0028-112.4c0-.5591-.0237-1.1187-.0086-1.6773.0224-.8275-.4-1.1426-1.1841-1.105-.3987.0191-.7994-.0037-1.1992-.0037-13.8343,0-27.6687.023-41.5027-.0339a3.9775,3.9775,0,0,0-3.4543,1.5935c-5.5459,6.7153-11.1755,13.3617-16.7736,20.034C192.28,430.7323,189.21,434.4039,185.7383,438.55Z" transform="translate(-108.1445 -207.4608)"/><path class="e272d904-9fbc-44f4-9fb7-4e838be75961" d="M627.1067,480.9945V441.5859c0-.4793-.0088-.9589.0017-1.438.0375-1.7109.04-1.75,1.7082-1.7568,4.7979-.0209,9.596-.0076,14.3941-.0074,1.8392,0,3.6789.0224,5.5176-.0076.9044-.0147,1.34.3106,1.24,1.2611a13.7963,13.7963,0,0,0-.0074,1.437q0,39.9037-.0063,79.8075c-.0011,2.884.4437,2.5873-2.49,2.5954-5.5177.0151-11.0363-.0452-16.5528.0379a3.3551,3.3551,0,0,1-3.1178-1.6333q-14.6715-20.4374-29.441-40.8044c-.2772-.3837-.563-.7612-.9417-1.2726-.7067.7946-.4184,1.6873-.42,2.4711q-.0317,19.173-.015,38.346c0,.5592-.0385,1.1214.006,1.6769.0789.9826-.4262,1.2693-1.2984,1.1832-.0791-.0078-.16-.0006-.24-.0006-6.4774,0-12.9551-.0311-19.432.027-1.26.0113-1.7812-.3485-1.6131-1.6187a11.0271,11.0271,0,0,0,.01-1.4366V441.6041c0-.32-.0017-.6391,0-.9586.0141-2.2428.0144-2.256,2.1653-2.2593,5.2779-.008,10.5569.0584,15.8329-.0409a3.651,3.651,0,0,1,3.3749,1.6685c7.3163,9.7895,14.704,19.5257,22.071,29.2774q3.7557,4.9715,7.5216,9.9354A5.296,5.296,0,0,0,627.1067,480.9945Z" transform="translate(-108.1445 -207.4608)"/><path class="e272d904-9fbc-44f4-9fb7-4e838be75961" d="M899.8107,468.2747c-.4217-.8689-.7415-1.5063-1.0431-2.152-6.5354-13.99-24.1912-14.02-32.2977-3.52a28.7356,28.7356,0,0,0-5.5679,12.817,30.5316,30.5316,0,0,0,3.25,20.6343,20.1323,20.1323,0,0,0,12.9036,10.3194,20.8032,20.8032,0,0,0,12.95-.7476c5.7642-2.2392,8.7587-6.6288,9.4768-12.9017h-9.4382c-2.239,0-4.48-.0568-6.7161.0226-1.1816.042-1.4914-.3938-1.4786-1.5205.0523-4.6326.0731-9.2671-.0106-13.8987-.0243-1.3463.5131-1.5815,1.675-1.5686,4.1575.0461,8.3159.0179,12.474.0179q13.1938,0,26.3876.0015c2.2328.001,2.2311.01,2.2107,2.1287-.0624,6.4909-.4785,12.9716-2.6144,19.1387-5.1931,14.9948-15.4983,24.2468-31.3177,26.9179-10.6912,1.8052-21.0653.6421-30.7592-4.3935-12.138-6.3052-18.9666-16.5744-21.2235-29.88a49.2354,49.2354,0,0,1,2.44-26.6309c5.5305-14.0729,16.07-22.3377,30.7057-25.39,9.3123-1.9423,18.5982-1.66,27.6006,1.8116,9.3409,3.602,15.8143,10.2648,20.2618,19.078.4959.9827.223,1.3151-.7281,1.7065C912.6134,462.8732,906.3024,465.5488,899.8107,468.2747Z" transform="translate(-108.1445 -207.4608)"/><path class="e272d904-9fbc-44f4-9fb7-4e838be75961" d="M358.9124,438.6a4.9653,4.9653,0,0,1,2.357-.21c11.4371-.0118,22.8743.0041,34.3114-.0142a27.3675,27.3675,0,0,1,12.9364,2.9983c6.3532,3.3177,9.6309,8.6574,10.17,15.7208a24.3429,24.3429,0,0,1-.428,7.3863,17.8716,17.8716,0,0,1-8.4382,11.7038c-.6006.3655-1.2218.6975-1.906,1.0862.412.8266,1.2508.7592,1.8386,1.0032,8.9945,3.7331,14.1137,11.3325,14.2685,21.0639.1054,6.6315-1.69,12.4705-6.7454,17.0075-4.1749,3.7467-9.2606,5.5453-14.6731,6.5776a37.7812,37.7812,0,0,1-7.16.5648q-17.0358-.0228-34.0715-.007c-.56,0-1.12-.0153-1.68-.0015-.7144.0177-1-.33-.9582-1.0222.0242-.398.0023-.7987.0023-1.1982q0-40.3893.0066-80.7786A3.8941,3.8941,0,0,1,358.9124,438.6Zm22.3465,66.8171c3.8072-.102,7.476.2932,11.1056-.2584,4.3957-.6679,7.0754-4.1484,7.0836-8.8531.0077-4.3505-2.4442-7.1429-7.0135-7.9542-3.3281-.5909-6.6892-.16-10.0323-.2923-.8013-.0316-1.1537.2843-1.1513,1.1071C381.2663,494.4973,381.2589,499.8285,381.2589,505.4172Zm-.0027-42.4111c0,2.1533.0213,4.307-.0108,6.46-.0124.828.1115,1.3627,1.1377,1.3416,2.4726-.0508,4.948.0189,7.42-.05a5.5985,5.5985,0,0,0,4.5317-2.3266,8.843,8.843,0,0,0,1.0971-9.0628c-1.23-2.86-3.8478-3.9213-6.7987-4.0956-1.989-.1175-3.9933.0348-5.9847-.06-1.2554-.06-1.4411.5187-1.41,1.5728C381.2988,458.8577,381.256,460.9326,381.2562,463.0061Z" transform="translate(-108.1445 -207.4608)"/><path class="e272d904-9fbc-44f4-9fb7-4e838be75961" d="M544.4839,489.1846q12.614,16.965,25.26,33.9734a2.9424,2.9424,0,0,1-2.0068.312c-8.3151.0169-16.6307-.0288-24.9452.0491a3.1066,3.1066,0,0,1-3.04-1.6852c-5.5477-8.8627-11.1616-17.6841-16.7654-26.5118a7.7788,7.7788,0,0,0-1.5249-2.135c-.7144.4556-.3911,1.1524-.3927,1.7107q-.0362,13.2988-.0171,26.5977c0,2.1252.1781,1.9862-1.8843,1.986q-9.3546,0-18.7092-.0038c-1.9411-.003-1.9618-.0229-1.9627-1.9489q-.0094-20.2479-.0034-40.4958V441.2561a11.4267,11.4267,0,0,0-.0094-1.4364c-.1561-1.2236.4615-1.5562,1.5425-1.4426a9.2336,9.2336,0,0,0,.9589.0048q16.4306,0,32.861-.0014a34.7891,34.7891,0,0,1,13.8065,2.516c8.0686,3.4246,12.2832,9.6371,13.0879,18.2277a32.9583,32.9583,0,0,1-1.6168,14.6385,25.2882,25.2882,0,0,1-13.3559,14.6441c-.2879.1365-.58.2651-.8589.4186A3.1575,3.1575,0,0,0,544.4839,489.1846ZM521.0532,466.12c0,2.4734.0236,4.9471-.0122,7.42-.0132.911.3212,1.3044,1.2485,1.2873,1.7564-.0323,3.5141-.0231,5.271-.0057,7.2773.0723,10.2565-5.5022,9.3766-11.2358-.6155-4.01-3.0545-6.2165-7.1085-6.4358-2.469-.1335-4.9506-.0175-7.4249-.0777-1.0368-.0253-1.3923.3535-1.3693,1.3885C521.0911,461.0127,521.0529,463.5667,521.0532,466.12Z" transform="translate(-108.1445 -207.4608)"/><path class="e272d904-9fbc-44f4-9fb7-4e838be75961" d="M729.3215,438.6478a3.9884,3.9884,0,0,1,2.1754-.259q16.6671-.0149,33.3342-.0076a35.7725,35.7725,0,0,1,11.3275,1.6741c9.0151,2.9816,14.2158,9.1781,15.2821,18.6106a32.4729,32.4729,0,0,1-1.7781,15.5551,25.284,25.284,0,0,1-12.7566,13.9858c-.4971.2467-1.0022.4774-1.7879.8505l25.2352,33.9539c-.3678.7792-1.0087.4538-1.4952.455-8.4734.021-16.9472-.0262-25.42.054a3.1,3.1,0,0,1-2.9993-1.7577c-5.59-8.9283-11.2438-17.816-16.8816-26.7141-.4245-.67-.8785-1.3214-1.3271-1.9938-.7831.3459-.4314.9816-.4326,1.4462q-.0346,13.5358-.0152,27.0718c.001,2.0547.1131,1.9094-1.9675,1.9091q-9.2329-.0015-18.4658.0013c-2.51.0021-2.123-.0006-2.1236-2.25q-.0082-34.02-.0032-68.0389,0-6.8279.0052-13.6557A8.0032,8.0032,0,0,1,729.3215,438.6478ZM751.78,465.9c0,1.356-.0713,2.7167.0186,4.0667.1038,1.5569-.7447,3.5263.4006,4.5609,1.01.9126,2.9076.2029,4.41.2875.4776.0269.9579.0066,1.437.0038,6.5585-.0379,10.2075-4.0151,9.6685-10.5373-.3579-4.3328-2.8624-6.8872-7.1861-7.1291-2.4675-.1381-4.9488-.0154-7.4222-.0789-1.0619-.0273-1.3662.3992-1.344,1.4089C751.8176,460.9541,751.7809,463.4276,751.78,465.9Z" transform="translate(-108.1445 -207.4608)"/><path class="e272d904-9fbc-44f4-9fb7-4e838be75961" d="M687.5838,470.7963l10.86,0c4.0774,0,8.1553.0366,12.2319-.022,1.2188-.0175,1.675.3243,1.6591,1.6093-.0632,5.1108-.0181,10.2228-.03,15.3344-.0042,1.8226-.0261,1.8559-1.8117,1.86-6.4759.0152-12.9518-.0119-19.4276.0125-4.073.0154-3.435-.4619-3.479,3.3605-.0322,2.7951-.01,5.5908-.0049,8.3862.0041,2.0986-.2235,2.0038,2.1232,2.0039,8.2347,0,16.47-.0149,24.7042.0078,3.1979.0088,2.7993-.4826,2.8126,2.7605.0217,5.2712-.0376,10.5432.0365,15.8135.0183,1.2978-.4173,1.5831-1.6284,1.5806q-24.4642-.05-48.9286-.0284c-1.6589-.001-1.6783-.0409-1.6789-1.99q-.0081-24.7992-.003-49.5983,0-15.6942.0024-31.3883c.0011-2.09.0156-2.112,2.0488-2.1128q23.505-.0094,47.01.0005c1.7854.0008,1.8066.0262,1.81,1.83q.0163,8.2663-.0012,16.5327c-.0048,1.8117-.0328,1.8369-1.8213,1.8391q-11.8725.0151-23.7448.0046c-.56,0-1.12.0248-1.6787-.0012-.8513-.04-1.074.4055-1.07,1.1753C687.5951,463.3523,687.5838,466.9384,687.5838,470.7963Z" transform="translate(-108.1445 -207.4608)"/><path class="e272d904-9fbc-44f4-9fb7-4e838be75961" d="M481.5554,489.5841h-9.4205c-4.4783,0-8.9567-.011-13.435.006-1.7159.0066-1.747.0357-1.7568,1.6775-.021,3.515.0563,7.0319-.0385,10.5445-.036,1.3348.4777,1.5568,1.6548,1.551,8.3967-.0409,16.7936-.0217,25.1905-.0216.48,0,.9633.0388,1.4386-.0073.93-.09,1.2818.2912,1.2586,1.2246-.0456,1.8363-.0127,3.6746-.0126,5.5121q0,5.7519.0012,11.5041c.0023,2.0842.1156,1.9068-1.9588,1.9067q-18.2332-.0009-36.4664,0-5.5179,0-11.0359,0c-2.5967-.0006-2.5975-.0016-2.5979-2.7116q-.0011-6.95,0-13.9008,0-32.9544.0038-65.9089c.0009-2.8774-.3283-2.5733,2.5368-2.5746q22.9114-.0109,45.8229-.0034a7.2619,7.2619,0,0,0,.9587-.006c1.3167-.177,1.5876.4624,1.5759,1.6646-.0545,5.5918-.0131,11.1844-.0306,16.7766-.0055,1.7418-.0408,1.768-1.9311,1.7706q-11.8757.0162-23.7511.0047c-.56,0-1.12.0234-1.6792-.0015-.7407-.0331-.9513.3481-.9484,1.0227q.0217,5.1528.0037,10.3057c-.0011.5841.2411.8829.8447.8725.56-.01,1.12.0041,1.6792.0041q10.0763.0009,20.1525.0046c1.915.0031,1.9338.0263,1.9375,1.9888C481.5621,478.2963,481.5554,483.8033,481.5554,489.5841Z" transform="translate(-108.1445 -207.4608)"/><path class="e272d904-9fbc-44f4-9fb7-4e838be75961" d="M1126.1487,465.863a11.046,11.046,0,0,1,1.2441-.1466q8.5177-.0141,17.0353-.001c1.6755.0049,1.6868.04,1.71,1.7121.0181,1.33.0037,2.66.0037,3.8587.5285.3261.615-.0023.7365-.1549,3.6715-4.6163,8.6247-6.7329,14.3522-7.1723,14.8773-1.1416,26.4052,8.878,29.5888,22.3477a31.395,31.395,0,0,1-3.9845,24.8459,27.3551,27.3551,0,0,1-32.9779,10.8717,21.8379,21.8379,0,0,1-4.0264-2.098,22.6753,22.6753,0,0,1-3.5775-3.0183v32.9387h-20.104Zm32.01,15.3564c-7.4218.0276-12.6929,5.24-12.7517,12.61-.06,7.4769,5.2436,12.7024,12.901,12.6225,7.5089-.0782,12.7408-4.7083,12.716-12.5329C1170.9959,484.9034,1164.3277,481.0969,1158.1591,481.2194Z" transform="translate(-108.1445 -207.4608)"/><path class="e272d904-9fbc-44f4-9fb7-4e838be75961" d="M1013.2533,463.8629a35.2386,35.2386,0,0,1,22.3334,8.0406,26.99,26.99,0,0,1,9.8247,19.7945c1.0617,16.76-9.71,27.95-24.8284,31.1909a41.211,41.211,0,0,1-24.9117-2.1595c-10.413-4.3106-18.4019-13.8609-18.02-27.854.32-11.7346,6.9981-21.427,18.4829-26.1172C1000.9459,464.7929,1005.941,463.8552,1013.2533,463.8629Zm11.0692,30.0723c.0062-7.4527-5.1892-12.6772-12.6456-12.7166-7.6359-.04-12.868,5.13-12.8655,12.7125.0026,7.5125,5.0982,12.5244,12.7384,12.5293C1019.164,506.4653,1024.3163,501.4127,1024.3225,493.9352Z" transform="translate(-108.1445 -207.4608)"/><path class="e272d904-9fbc-44f4-9fb7-4e838be75961" d="M1054.0768,465.8184h19.8864a5.3052,5.3052,0,0,1,.1853,2.326q.018,13.7782.0081,27.5565a22.2242,22.2242,0,0,0,.5431,5.7043,7.7591,7.7591,0,0,0,6.97,6.2736,16.3011,16.3011,0,0,0,5.0085-.028,7.6936,7.6936,0,0,0,6.7-5.9836,22.47,22.47,0,0,0,.6112-6.1768q-.0027-13.8981.0024-27.796c.0015-1.953.0195-1.9768,1.9235-1.9811,5.5169-.0126,11.0339.0247,16.55-.0266,1.2231-.0114,1.6393.3133,1.632,1.6088-.0634,11.2617-.0444,22.5238-.0737,33.7858a24.7389,24.7389,0,0,1-1.1057,7.0747,19.52,19.52,0,0,1-11.9229,12.8908,38.9945,38.9945,0,0,1-12.12,2.6144,52.3219,52.3219,0,0,1-18.532-1.53c-10.3728-2.9977-15.9555-10.0161-16.1875-20.7817-.2013-9.3409-.0659-18.6892-.0777-28.0342C1054.0742,470.8518,1054.0768,468.3887,1054.0768,465.8184Z" transform="translate(-108.1445 -207.4608)"/><path class="e272d904-9fbc-44f4-9fb7-4e838be75961" d="M954.116,474.1674c4.7316-6.66,11.06-9.3,18.78-9.2259,3.44.033,3.44.0046,3.44,3.3333,0,5.1881,0,10.3761,0,15.7015a26.7418,26.7418,0,0,0-5.8838-1.5824,20.62,20.62,0,0,0-7.3742.4966,10.8131,10.8131,0,0,0-7.8581,7.6585,27.7678,27.7678,0,0,0-1.1032,8.75q0,10.3043-.0034,20.6086c-.0024,2.0408-.02,2.0547-2.1012,2.0579q-7.9159.0123-15.8319.0009c-2.35-.0025-2.1156.2154-2.1164-2.25q-.0063-18.5716-.002-37.1434c0-5.0323-.0088-10.0646.0049-15.0969.0047-1.7185.0305-1.7553,1.6512-1.76,5.597-.0174,11.1944.0219,16.7911-.0291,1.2333-.0112,1.688.3449,1.6343,1.625C954.0472,469.5933,954.116,471.8818,954.116,474.1674Z" transform="translate(-108.1445 -207.4608)"/><path class="b4409b33-c44f-434f-a0eb-642165954fd4" d="M185.7383,438.55c3.4721-4.1462,6.542-7.8178,9.6182-11.4843,5.5981-6.6723,11.2277-13.3187,16.7736-20.034a3.9775,3.9775,0,0,1,3.4543-1.5935c13.834.0569,27.6684.0335,41.5027.0339.4,0,.8.0228,1.1992.0037.7844-.0376,1.2065.2775,1.1841,1.105-.0151.5586.0086,1.1182.0086,1.6773q.0009,56.2-.0028,112.4c0,3.14.29,2.86-2.803,2.8605q-56.2568.0073-112.5134-.0005c-3.28-.0006-2.8884.2888-2.8891-3.0021q-.0122-56.08-.0011-112.1605c.0005-3.1913-.3231-2.8763,2.76-2.88q13.7942-.0163,27.5885-.0038c.4,0,.8023.031,1.199-.004,1.076-.0949,1.6917.2432,1.5734,1.4575-.0616.633-.009,1.2771-.009,1.9162q0,39.3037.0052,78.6077c.0012,3.28-.3876,2.9888,2.9011,2.9907q23.03.0129,46.0609.0038c.24,0,.48.0019.72,0,2.28-.0218,2.292-.0221,2.2943-2.414q.01-10.3054.0023-20.6107,0-12.9416-.0006-25.8832c0-.639-.0182-1.2781-.0115-1.917.0069-.6707-.27-1.0566-.9815-1.0563-.64,0-1.2794-.0115-1.919-.0116q-17.3928-.0011-34.7856,0Z" transform="translate(-108.1445 -207.4608)"/><path class="b4409b33-c44f-434f-a0eb-642165954fd4" d="M381.2589,505.4172c0-5.5887.0074-10.92-.0079-16.2509-.0024-.8228.35-1.1387,1.1513-1.1071,3.3431.132,6.7042-.2986,10.0323.2923,4.5693.8113,7.0212,3.6037,7.0135,7.9542-.0082,4.7047-2.6879,8.1852-7.0836,8.8531C388.7349,505.71,385.0661,505.3152,381.2589,505.4172Z" transform="translate(-108.1445 -207.4608)"/><path class="b4409b33-c44f-434f-a0eb-642165954fd4" d="M381.2561,463.0061c0-2.0735.0427-4.1484-.018-6.22-.0309-1.0541.1548-1.6324,1.41-1.5728,1.9914.0947,3.9957-.0576,5.9847.06,2.9509.1743,5.5684,1.2356,6.7987,4.0956a8.843,8.843,0,0,1-1.0971,9.0628,5.5985,5.5985,0,0,1-4.5317,2.3266c-2.4718.0684-4.9472-.0013-7.42.05-1.0262.0211-1.15-.5136-1.1377-1.3416C381.2775,467.3131,381.2562,465.1594,381.2561,463.0061Z" transform="translate(-108.1445 -207.4608)"/><path class="b4409b33-c44f-434f-a0eb-642165954fd4" d="M521.0531,466.12c0-2.5532.038-5.1072-.0187-7.6592-.023-1.035.3325-1.4138,1.3693-1.3885,2.4743.06,4.9559-.0558,7.4249.0777,4.054.2193,6.493,2.4253,7.1085,6.4358.88,5.7336-2.0993,11.3081-9.3766,11.2358-1.7569-.0174-3.5146-.0266-5.271.0057-.9273.0171-1.2617-.3763-1.2485-1.2873C521.0768,471.067,521.0532,468.5933,521.0531,466.12Z" transform="translate(-108.1445 -207.4608)"/><path class="b4409b33-c44f-434f-a0eb-642165954fd4" d="M751.7807,465.9c0-2.4726.0369-4.9461-.0176-7.4175-.0222-1.01.2821-1.4362,1.344-1.4089,2.4734.0635,4.9547-.0592,7.4222.0789,4.3237.2419,6.8282,2.7963,7.1861,7.1291.539,6.5222-3.11,10.4994-9.6685,10.5373-.4791.0028-.9594.0231-1.437-.0038-1.5027-.0846-3.4.6251-4.41-.2875-1.1453-1.0346-.2968-3.004-.4006-4.5609C751.7091,468.6169,751.78,467.2562,751.7807,465.9Z" transform="translate(-108.1445 -207.4608)"/><path class="b4409b33-c44f-434f-a0eb-642165954fd4" d="M1158.1591,481.2194c6.1686-.1225,12.8368,3.684,12.8653,12.6992.0248,7.8246-5.2071,12.4547-12.716,12.5329-7.6574.08-12.9608-5.1456-12.901-12.6225C1145.4662,486.4592,1150.7373,481.247,1158.1591,481.2194Z" transform="translate(-108.1445 -207.4608)"/><path class="b4409b33-c44f-434f-a0eb-642165954fd4" d="M1024.3225,493.9352c-.0062,7.4775-5.1585,12.53-12.7727,12.5252-7.64-.0049-12.7358-5.0168-12.7384-12.5293-.0025-7.5829,5.23-12.7528,12.8655-12.7125C1019.1333,481.258,1024.3287,486.4825,1024.3225,493.9352Z" transform="translate(-108.1445 -207.4608)"/></svg>