<?xml version="1.0" encoding="UTF-8"?><svg id="Layer_1" xmlns="http://www.w3.org/2000/svg" viewBox="0 0 842.33 330.47"><defs><style>.cls-1{fill:#fff;}.cls-2{fill:#5e6a71;}</style></defs><path d="m279.88,146.4V2.39h30.12v120.07h45.08v23.93h-75.19Z"/><path d="m416.5,148.79c-12.37,0-21.94-2.09-28.72-6.28s-11.7-9.77-14.76-16.75c-3.06-6.98-4.86-14.92-5.39-23.83-.53-8.91-.8-18.08-.8-27.52s.26-18.81.8-27.72c.53-8.91,2.32-16.82,5.39-23.74,3.06-6.91,7.98-12.47,14.76-16.65s16.35-6.28,28.72-6.28,21.94,2.09,28.72,6.28,11.7,9.74,14.76,16.65c3.06,6.92,4.85,14.83,5.39,23.74.53,8.91.8,18.15.8,27.72s-.27,18.62-.8,27.52c-.53,8.91-2.33,16.85-5.39,23.83-3.06,6.98-7.98,12.57-14.76,16.75s-16.35,6.28-28.72,6.28Zm0-21.54c4.25,0,7.64-1.03,10.17-3.09,2.52-2.06,4.45-5.22,5.78-9.47,1.33-4.25,2.19-9.74,2.59-16.46.4-6.71.6-14.66.6-23.83s-.2-17.12-.6-23.83c-.4-6.71-1.27-12.2-2.59-16.46-1.33-4.25-3.26-7.41-5.78-9.47-2.53-2.06-5.92-3.09-10.17-3.09s-7.65,1.03-10.17,3.09c-2.53,2.06-4.46,5.22-5.78,9.47-1.33,4.26-2.19,9.74-2.59,16.46-.4,6.72-.6,14.66-.6,23.83s.2,17.12.6,23.83c.4,6.72,1.26,12.2,2.59,16.46,1.33,4.26,3.26,7.41,5.78,9.47,2.52,2.06,5.92,3.09,10.17,3.09Z"/><path d="m519.62,146.4h-30.12V2.39h55.65c10.37,0,18.58,3.19,24.63,9.57,6.05,6.38,9.08,15.76,9.08,28.12,0,9.17-2.03,16.95-6.08,23.34-4.06,6.38-10.94,10.37-20.64,11.97v.4c1.6.27,3.85.67,6.78,1.2,2.92.53,5.82,1.73,8.68,3.59,2.86,1.86,5.35,4.62,7.48,8.28,2.13,3.66,3.19,8.75,3.19,15.26,0,2.26.03,5.45.1,9.57.07,4.12.23,8.38.5,12.76.27,4.39.63,8.45,1.1,12.17.46,3.72,1.03,6.32,1.7,7.78h-29.52c-1.99-4.39-3.03-8.98-3.09-13.76-.07-4.79-.1-9.5-.1-14.16,0-4.25-.03-8.31-.1-12.17-.07-3.86-.73-7.21-1.99-10.07-1.27-2.86-3.39-5.15-6.38-6.88-2.99-1.73-7.35-2.59-13.06-2.59h-7.78v59.64Zm0-81.78h13.36c2.92,0,5.39-.66,7.38-1.99,1.99-1.33,3.59-3.02,4.79-5.09,1.2-2.06,2.03-4.35,2.49-6.88.46-2.52.7-4.92.7-7.18,0-6.91-1.37-11.8-4.09-14.66-2.73-2.86-6.48-4.29-11.27-4.29h-13.36v40.09Z"/><path d="m600.99,146.4V2.39h78.58v22.14h-48.47v35.5h44.68v22.14h-44.68v42.08h50.06v22.14h-80.18Z"/><path d="m700.12,146.4V2.39h48.47l22.54,97.93h.4l23.93-97.93h46.87v144h-29.32V35.3h-.4l-27.72,111.09h-28.72l-26.33-111.09h-.4v111.09h-29.32Z"/><path d="m280.14,327.98v-149.5h31.27v149.5h-31.27Z"/><path d="m337.91,178.48h56.32c7.18,0,13.28,1.04,18.33,3.11,5.04,2.07,9.14,5.07,12.32,9.01,3.17,3.93,5.49,8.67,6.94,14.18,1.45,5.52,2.17,11.67,2.17,18.43,0,4.28-.45,8.98-1.35,14.08-.9,5.11-2.8,9.87-5.69,14.29-2.9,4.42-7.11,8.11-12.63,11.08-5.52,2.97-12.84,4.45-21.95,4.45h-23.19v60.88h-31.27v-149.5Zm31.27,65.64h17.39c2.34,0,4.48-.58,6.42-1.76,1.93-1.17,3.59-2.69,4.97-4.56,1.38-1.86,2.45-4,3.21-6.42.76-2.41,1.14-4.87,1.14-7.35,0-3.03-.24-5.93-.72-8.7-.49-2.76-1.38-5.18-2.69-7.25-1.31-2.07-3.11-3.69-5.38-4.87-2.28-1.17-5.14-1.76-8.59-1.76h-15.74v42.65Z"/><path d="m545.59,287.19c0,9.66-1.59,17.36-4.76,23.09-3.18,5.73-7.28,10.08-12.32,13.04-5.04,2.97-10.66,4.9-16.88,5.8-6.21.9-12.29,1.35-18.22,1.35-9.66,0-17.5-1.31-23.5-3.93-6-2.62-10.6-6.18-13.77-10.66-3.18-4.48-5.25-9.66-6.21-15.53-.97-5.87-1.24-12.04-.83-18.53h31.27c0,3.59.14,6.97.41,10.15.28,3.18.96,5.97,2.07,8.39,1.1,2.42,2.86,4.32,5.28,5.69,2.41,1.38,5.76,2.07,10.04,2.07,5.24,0,9.18-1.55,11.8-4.66,2.62-3.11,3.93-7.21,3.93-12.32,0-4.42-1.55-8.28-4.66-11.59-3.11-3.31-7.01-6.45-11.7-9.42-4.69-2.97-9.73-5.93-15.12-8.9-5.38-2.97-10.42-6.42-15.11-10.35-4.69-3.93-8.59-8.52-11.7-13.77-3.11-5.24-4.66-11.59-4.66-19.05,0-5.8.79-11.25,2.38-16.36,1.58-5.11,4.24-9.56,7.97-13.35,3.73-3.8,8.76-6.8,15.11-9.01,6.35-2.21,14.29-3.31,23.81-3.31,15.18,0,26.47,3.59,33.85,10.77,7.38,7.18,10.59,18.57,9.63,34.16h-30.44c0-2.76-.17-5.49-.52-8.18-.35-2.69-1.04-5.11-2.07-7.25-1.04-2.14-2.48-3.86-4.35-5.18-1.86-1.31-4.38-1.97-7.56-1.97-5.11,0-9.08,1.35-11.91,4.04-2.83,2.69-4.24,6.66-4.24,11.91,0,4.69,1.55,8.7,4.66,12.01s7,6.35,11.7,9.11c4.69,2.76,9.73,5.56,15.12,8.39,5.38,2.83,10.42,6.14,15.11,9.94,4.69,3.8,8.59,8.35,11.7,13.67,3.11,5.32,4.66,11.91,4.66,19.77Z"/><path d="m668.99,178.48v106.01c0,5.66-.86,11.22-2.59,16.67-1.73,5.45-4.56,10.35-8.49,14.7-3.93,4.35-9.15,7.87-15.63,10.56-6.49,2.69-14.49,4.04-24.02,4.04-17.26,0-30.06-4.14-38.41-12.42-8.35-8.28-12.53-19.46-12.53-33.54v-106.01h31.27v103.94c0,9.25,1.76,15.84,5.28,19.77,3.52,3.93,8.18,5.9,13.98,5.9,6.9,0,11.94-2.21,15.11-6.63,3.17-4.42,4.76-10.77,4.76-19.05v-103.94h31.27Z"/><path d="m693.84,327.98v-149.5h50.32l23.4,101.67h.41l24.85-101.67h48.66v149.5h-30.44v-115.33h-.41l-28.78,115.33h-29.82l-27.33-115.33h-.41v115.33h-30.44Z"/><rect class="cls-2" y="2.47" width="239.28" height="326"/><path class="cls-1" d="m58.89,281.49V50.24h48.37v192.82h72.39v38.44H58.89Z"/><path class="cls-1" d="m132.02,220.47V49.44h48.37v171.03h-48.37Z"/></svg>